<svg width="71" height="70" fill="none" xmlns="http://www.w3.org/2000/svg"><g opacity=".3" fill="#333"><path d="M33.626 2.33c0 .732-.078 1.199-.188 1.308-.265.186-3.185.98-3.794 1.011-.405.031-.515-.078-1.014-.934-.297-.544-.61-.98-.703-.98-.078.015-.843.42-1.67.903l-1.5.887.532.933c.28.514.53 1.059.53 1.199 0 .264-2.732 3.081-2.997 3.081-.078 0-.61-.249-1.155-.56-.563-.311-1.031-.545-1.062-.513-.11.17-1.811 3.128-1.811 3.175 0 .03.453.295.999.607.546.31 1.03.653 1.077.762.047.11-.093.7-.28 1.308-.204.606-.422 1.416-.47 1.82-.062.39-.202.779-.296.856-.11.094-.702.172-1.343.203-1.14.046-1.17.062-1.17.435v.39h36.377v-.39c0-.373-.031-.389-1.28-.435l-1.28-.047-.172-.654c-.125-.544-.328-1.291-.89-3.252-.078-.25.156-.436 1.624-1.308l.5-.296-.844-1.447c-.453-.81-.89-1.525-.968-1.603-.11-.109-.484.047-1.077.39-.5.31-1 .56-1.109.56-.203 0-3.169-2.88-3.169-3.067 0-.077.25-.544.562-1.042.297-.498.515-.996.484-1.09-.078-.171-2.842-1.805-3.06-1.805-.063 0-.375.451-.687 1.011-.656 1.137-.718 1.152-2.014.716-.484-.155-1.28-.389-1.78-.482-.515-.109-.968-.265-1.03-.374-.063-.093-.125-.684-.125-1.307V1.18h-3.747v1.15zM9.427 23.466c1.358 2.256 5.027 8.295 8.15 13.431l5.682 9.338 12.725.047 12.724.031 7.213-12.638c3.966-6.956 7.432-13.026 7.682-13.478l.468-.809H6.929l2.498 4.078zm29.601-2.133c.89.56 1.718 1.79 1.874 2.818.125.887-.172 2.085-.703 2.817l-.421.59 1.748 2.351 1.749 2.366.89-.25c2.186-.606 4.45.794 4.918 3.035.375 1.79-.562 3.642-2.264 4.42-.718.327-2.014.39-2.92.11-.811-.234-1.889-1.214-2.31-2.07-.515-1.074-.406-2.709.265-3.782l.484-.779-1.717-2.319c-1.109-1.51-1.796-2.287-1.967-2.272-.14.016-.578.11-.968.203-.875.233-2.077 0-2.889-.56-.312-.203-.593-.374-.64-.374-.047 0-1.405 1.027-3.029 2.272l-2.935 2.257.219.529c.28.685.28 2.272 0 2.941-.125.296-.469.81-.78 1.152-1.812 1.992-5.106 1.634-6.387-.7-.89-1.666-.655-3.409.672-4.716 1.342-1.354 3.091-1.572 4.793-.623l.827.467 2.951-2.272 2.951-2.272-.219-.53c-.296-.684-.28-2.256.016-2.988.328-.762 1.249-1.712 2.03-2.07.484-.233.905-.295 1.81-.264 1 .047 1.297.124 1.952.514z"/><path d="M35.734 22.174c-.75.342-1.077.685-1.405 1.463-1.109 2.646 2.233 5.073 4.387 3.19.718-.638 1-1.198 1-2.07 0-2.163-2.03-3.486-3.982-2.583zm-12.49 9.571c-.937.56-1.374 1.448-1.296 2.6.078 1.027.375 1.556 1.218 2.116 1.39.95 3.247.483 4.028-1.042.578-1.168.344-2.475-.624-3.378-.828-.778-2.311-.902-3.326-.295zm20.609 1.635c-1.405.856-1.842 2.256-1.186 3.704.843 1.852 3.513 2.1 4.793.436.624-.825.718-2.133.203-3.035-.718-1.276-2.639-1.837-3.81-1.105zM23.635 58.297v10.739l.983-.358c.531-.203 6.12-2.242 12.397-4.545l11.444-4.202V47.557H23.635v10.74z"/></g></svg>