<svg width="71" height="70" fill="none" xmlns="http://www.w3.org/2000/svg"><g opacity=".3"><rect x="4.7" y="43.966" width="11.454" height="20.307" rx="2" fill="#333"/><rect x="18.7" y="36.35" width="11.454" height="27.922" rx="2" fill="#333"/><rect x="32.7" y="31.273" width="11.454" height="32.999" rx="2" fill="#333"/><rect x="46.7" y="26.197" width="11.454" height="38.076" rx="2" fill="#333"/><path d="M4.568 35.85a1 1 0 10.265 1.983l-.265-1.983zm43.405-18.047l-11.51.928 6.559 9.504 4.95-10.431zm-43.14 20.03c6.47-.866 21.445-4.834 36.263-14.07l-1.058-1.698C25.477 31.142 10.775 35.02 4.568 35.85l.265 1.983z" fill="#333"/><ellipse cx="58.155" cy="15.329" rx="8.909" ry="8.329" fill="#333"/><path d="M61.496 16.711c0 .596-.215 1.117-.646 1.564-.423.439-1.03.73-1.821.871v1.18h-1.493V19.2a7.133 7.133 0 01-1.525-.244c-.48-.135-.879-.301-1.197-.5l.805-1.829a5.29 5.29 0 001.186.5c.438.12.858.18 1.26.18.346 0 .593-.031.742-.095.148-.07.222-.173.222-.308 0-.156-.099-.273-.297-.351-.19-.078-.508-.163-.953-.255a11.518 11.518 0 01-1.43-.383 2.507 2.507 0 01-.994-.68c-.283-.32-.424-.748-.424-1.287 0-.624.222-1.16.667-1.606.452-.446 1.098-.73 1.938-.85v-1.16h1.493v1.138c.847.078 1.564.284 2.15.617l-.752 1.818c-.727-.368-1.416-.553-2.065-.553-.643 0-.964.156-.964.468 0 .15.095.262.286.34.19.071.505.15.943.234a9.19 9.19 0 011.43.373 2.4 2.4 0 011.005.67c.29.311.434.737.434 1.275z" fill="#fff"/></g></svg>