<svg width="71" height="72" fill="none" xmlns="http://www.w3.org/2000/svg"><g opacity=".3" fill="#333"><path d="M45.789 7.166c-3.48.497-6.712 1.942-9.123 4.062-.404.355-2.91 2.783-5.571 5.376-5.346 5.234-5.44 5.353-5.536 6.81-.06.959.131 1.693.63 2.463 1.033 1.55 3.136 2.19 4.728 1.444.415-.201 2.185-1.658 5.547-4.583 2.708-2.356 5.215-4.535 5.56-4.831l.629-.545 9.42 9.39 9.42 9.392.581-.758c1.723-2.18 2.816-4.607 3.398-7.46.38-1.86.368-4.903-.012-6.727-.796-3.754-2.507-6.833-5.25-9.403-3.873-3.635-9.266-5.364-14.421-4.63z"/><path d="M21.2 8.848c-1.96.248-4.074.9-5.94 1.823C8.348 14.081 4.286 21.46 5.105 29.11a18.481 18.481 0 005.12 10.847l.915.96 3.017-2.962c2.055-2.036 3.207-3.09 3.659-3.327 1.092-.616 2.007-.888 3.088-.96 1.818-.106 3.29.415 4.538 1.6 1.069 1.018 1.663 2.178 1.877 3.67.059.415.13.782.166.817.024.036.44.107.926.166 2.281.285 4.324 2.06 5.013 4.358.107.355.19.841.19 1.066 0 .237.048.497.107.58.048.083.487.213.974.273 2.352.32 4.336 2.048 5.025 4.358.107.355.19.84.19 1.065 0 .652.13.758 1.045.853 1.699.178 3.528 1.386 4.42 2.925l.403.699.428-.166c1.318-.545 1.912-2.12 1.294-3.47-.178-.403-1.496-1.8-5.274-5.566-3.409-3.41-5.06-5.14-5.12-5.364-.225-.924.238-1.836 1.082-2.155 1.092-.427.867-.593 6.592 5.092 5.037 4.997 5.18 5.14 5.844 5.329 1.723.497 3.422-.723 3.422-2.452 0-1.22.118-1.077-5.405-6.608-4.526-4.523-5.156-5.21-5.227-5.6-.178-.948.226-1.718 1.07-2.038 1.092-.426.866-.592 6.592 5.08 5.56 5.53 5.476 5.448 6.711 5.436 1.877-.012 3.148-2.084 2.305-3.766-.38-.746-17.474-17.775-17.711-17.633-.095.06-2.139 1.812-4.538 3.896-4.668 4.062-5.227 4.453-6.866 4.797-1.057.224-2.934.106-3.991-.273a7.58 7.58 0 01-4.846-5.376c-.25-1.054-.167-2.878.178-3.944.498-1.563.879-2.013 5.333-6.442l4.193-4.145-.534-.272c-1.307-.663-3.564-1.326-5.334-1.563-.867-.118-3.98-.154-4.775-.047z"/><path d="M20.26 37.233c-.534.202-.605.273-3.112 2.748-1.057 1.042-2.007 2.072-2.114 2.285-.487.936-.345 2.203.356 2.96.844.936 2.127 1.185 3.22.616.546-.284 4.692-4.417 4.953-4.938.451-.912.344-1.883-.285-2.747-.642-.876-1.996-1.303-3.017-.924zm6.285 6.288c-.368.13-1.105.794-2.875 2.582-2.482 2.487-2.649 2.712-2.649 3.695 0 1.42 1.295 2.676 2.744 2.664.844-.012 1.402-.414 3.647-2.64 2.09-2.073 2.507-2.582 2.685-3.328.226-.936-.416-2.274-1.319-2.771-.641-.356-1.591-.438-2.233-.202zm6.356 6.241c-.285.095-1.128.84-2.768 2.451-1.294 1.28-2.435 2.464-2.53 2.641-.879 1.67.475 3.884 2.376 3.884.95 0 1.235-.2 3.611-2.534 1.271-1.243 2.411-2.475 2.554-2.735.392-.746.356-1.765-.095-2.499-.653-1.054-2.02-1.575-3.148-1.208zm6.533 6.241c-.701.225-1.129.58-3.279 2.76-2.34 2.367-2.542 2.652-2.542 3.611 0 1.516 1.509 2.806 3.03 2.605.296-.047.688-.154.867-.248.178-.095 1.366-1.232 2.648-2.523 2.044-2.06 2.34-2.416 2.483-2.901.428-1.575-.713-3.21-2.34-3.352-.309-.023-.7-.011-.867.048z"/></g></svg>