<svg width="40" height="40" fill="none" xmlns="http://www.w3.org/2000/svg"><g clip-path="url(#clip0_123_190)"><path d="M26.139 0H13.86C2.655 0 0 2.656 0 13.861V26.14c0 11.205 2.656 13.861 13.861 13.861H26.14C37.344 40.001 40 37.345 40 26.14V13.861C40 2.656 37.318 0 26.14 0zm6.152 28.535h-2.903c-1.1 0-1.439-.872-3.418-2.878-1.718-1.666-2.48-1.887-2.903-1.887-.6 0-.77.169-.77.99v2.624c0 .703-.22 1.126-2.083 1.126-3.08 0-6.497-1.863-8.894-5.333-3.613-5.084-4.602-8.893-4.602-9.68 0-.425.169-.82.982-.82h2.91c.737 0 1.017.338 1.303 1.126 1.438 4.153 3.835 7.792 4.823 7.792.366 0 .534-.169.534-1.1v-4.29c-.111-1.979-1.152-2.149-1.152-2.851 0-.339.28-.678.729-.678h4.576c.619 0 .846.339.846 1.068v5.787c0 .625.28.847.449.847.365 0 .677-.222 1.354-.9 2.09-2.343 3.587-5.957 3.587-5.957.195-.424.534-.82 1.27-.82h2.91c.873 0 1.068.449.873 1.074-.366 1.692-3.927 6.719-3.927 6.719-.306.507-.424.729 0 1.295.313.423 1.329 1.302 2.005 2.09 1.244 1.412 2.2 2.597 2.455 3.417.287.814-.136 1.238-.957 1.238l.004.001z" fill="#FF5900"/></g><defs><clipPath id="clip0_123_190"><path fill="#fff" d="M0 0h40v40H0z"/></clipPath></defs></svg>