<svg width="185" height="48" fill="none" xmlns="http://www.w3.org/2000/svg"><g opacity=".3" fill="#333"><path d="M62.778 34.176l-3.072 5.697c-.243.454-.53.793-.859 1.016a1.874 1.874 0 01-1.076.336c-.303 0-.613-.069-.928-.207l.256-.79c.244.085.461.128.652.128.434 0 .793-.23 1.076-.69l.158-.248-2.784-5.242h1.056L59.5 38.56l2.3-4.383h.979zm5.33 3.327c.467.112.82.313 1.056.602.244.283.366.649.366 1.096 0 .6-.22 1.063-.662 1.392-.434.33-1.07.494-1.906.494h-3.16v-6.91h2.973c.757 0 1.346.154 1.767.463.428.303.642.74.642 1.313 0 .375-.095.695-.286.958a1.66 1.66 0 01-.79.592zm-3.328-.286h1.925c.481 0 .847-.096 1.097-.286.256-.191.385-.471.385-.84 0-.368-.129-.648-.385-.839-.257-.197-.622-.296-1.097-.296H64.78v2.26zm2.163 3.09c1.06 0 1.59-.395 1.59-1.185 0-.395-.136-.684-.405-.868-.264-.191-.659-.287-1.185-.287H64.78v2.34h2.163zm9.253-.079v.859H71.18v-6.91h4.878v.858h-3.89v2.123h3.466v.839h-3.467v2.231h4.03zm7.2-6.052v6.91h-.968v-6.05h-3.061l-.07 2.023c-.032.954-.111 1.728-.236 2.32-.119.592-.31 1.04-.573 1.343-.263.296-.619.444-1.067.444-.204 0-.411-.026-.622-.08l.07-.878c.105.026.21.04.315.04.284 0 .51-.112.682-.336.17-.23.3-.573.385-1.027.085-.454.141-1.053.168-1.796l.108-2.913h4.869zm2.154 0h.977v5.331l4.088-5.33h.909v6.91h-.968v-5.321l-4.098 5.32h-.909v-6.91zm13.052 0v6.91h-.978v-2.734c-.73.283-1.406.425-2.025.425-.842 0-1.497-.204-1.965-.612-.46-.408-.691-.99-.691-1.748v-2.24h.968v2.132c0 .513.154.908.464 1.184.316.277.76.415 1.333.415.639 0 1.277-.145 1.916-.434v-3.298h.978zm7.172 6.052v.859h-5.016v-6.91h4.878v.858h-3.891v2.123h3.466v.839h-3.466v2.231h4.029zm7.496-6.052v6.91h-.987v-3.08h-3.97v3.08h-.988v-6.91h.988v2.972h3.97v-2.972h.987zm2.156 0h.978v5.331l4.088-5.33h.909v6.91h-.968v-5.321l-4.099 5.32h-.908v-6.91zm13.146 6.052v.859h-5.016v-6.91h4.878v.858h-3.891v2.123h3.467v.839h-3.467v2.231h4.029zm10.158-6.052v6.91h-.968v-6.05h-4.009v6.05h-.978v-6.91h5.955zm4.852 0c.895 0 1.6.214 2.113.642.514.428.77 1.017.77 1.767s-.256 1.34-.77 1.767c-.513.428-1.218.642-2.113.642h-1.709v2.093h-.987v-6.91h2.696zm-.03 3.959c.626 0 1.103-.132 1.432-.395.329-.27.494-.655.494-1.155s-.165-.882-.494-1.145c-.329-.27-.806-.405-1.432-.405h-1.679v3.1h1.679zm7.494 3.031c-.698 0-1.326-.151-1.886-.454a3.457 3.457 0 01-1.323-1.274 3.51 3.51 0 01-.474-1.806c0-.665.158-1.267.474-1.807.322-.54.763-.961 1.323-1.264.56-.31 1.188-.464 1.886-.464.692 0 1.317.155 1.877.464.559.303.997.724 1.313 1.264.316.533.474 1.135.474 1.806 0 .672-.158 1.277-.474 1.817a3.418 3.418 0 01-1.313 1.264 3.88 3.88 0 01-1.877.454zm0-.879c.507 0 .961-.115 1.363-.345a2.5 2.5 0 00.958-.948c.237-.408.355-.862.355-1.362 0-.5-.118-.951-.355-1.353a2.478 2.478 0 00-.958-.958 2.69 2.69 0 00-1.363-.345c-.507 0-.968.115-1.382.345-.408.23-.731.55-.968.958a2.67 2.67 0 00-.346 1.352c0 .5.116.955.346 1.363.237.401.56.717.968.948.414.23.875.345 1.382.345zm11.654-.059v2.37h-.918v-1.511h-5.688l-.01 1.51h-.918l.009-2.369h.336c.435-.026.741-.369.919-1.027.177-.665.286-1.6.325-2.803l.07-2.222h4.858v6.052h1.017zm-5.076-3.742c-.032.974-.111 1.78-.237 2.42-.118.638-.312 1.078-.582 1.322h3.901v-5.193h-3.032l-.05 1.451zm10.949 2.874h-3.674l-.76 1.727h-1.017l3.13-6.91h.978l3.14 6.91h-1.037l-.76-1.728zm-.346-.79l-1.491-3.387-1.491 3.386h2.982z"/><path d="M177.042 38.046h-1.314v3.04h-.967v-3.04h-1.324l-1.935 3.04h-1.156l2.282-3.593-2.114-3.317h1.057l1.847 3.001h1.343v-3h.967v3h1.324l1.856-3h1.057l-2.113 3.336 2.281 3.574h-1.156l-1.935-3.04z"/></g><path d="M70.32 29.881h-3.005v-3.983h-7.667v3.972h-3.094l-.178-6.686h1.08c.475-.437.85-1.142 1.124-2.113.274-.972.467-2.244.578-3.816l.456-7.553h9.314v13.482h1.68l-.289 6.697zm-9.348-6.697h4.696V12.427H62.73l-.267 4.46c-.185 2.678-.682 4.777-1.49 6.297zm22.467-3.927c0 2.173-.516 3.86-1.547 5.062-1.024 1.201-2.448 1.802-4.273 1.802-1.818 0-3.246-.593-4.284-1.78-1.039-1.194-1.566-2.863-1.58-5.006v-2.77c0-2.225.515-3.96 1.546-5.206 1.032-1.253 2.463-1.88 4.296-1.88 1.802 0 3.223.616 4.262 1.847 1.038 1.223 1.565 2.944 1.58 5.161v2.77zm-3.283-2.714c0-1.461-.208-2.547-.623-3.26-.416-.711-1.061-1.067-1.936-1.067-.868 0-1.51.345-1.925 1.034-.416.682-.631 1.725-.646 3.126v2.881c0 1.417.212 2.462.635 3.137.422.668 1.075 1.002 1.958 1.002.853 0 1.487-.327 1.903-.98.415-.66.627-1.68.634-3.058v-2.815zm9.904-6.841l3.06 11.714 3.049-11.714h4.273v16.197h-3.283v-4.383l.3-6.753-3.238 11.135h-2.225l-3.238-11.135.3 6.753v4.383h-3.271V9.701h4.273zm29.254 10.801c-.082 1.847-.601 3.245-1.558 4.194-.957.95-2.307 1.424-4.05 1.424-1.833 0-3.238-.6-4.218-1.802-.972-1.209-1.457-2.93-1.457-5.162v-2.725c0-2.225.504-3.938 1.513-5.14 1.009-1.208 2.411-1.813 4.206-1.813 1.766 0 3.105.493 4.017 1.48.92.986 1.443 2.402 1.569 4.25h-3.282c-.03-1.143-.208-1.93-.535-2.36-.319-.437-.908-.655-1.769-.655-.875 0-1.495.307-1.858.923-.364.608-.557 1.613-.579 3.014v3.06c0 1.609.178 2.714.534 3.315.364.6.983.9 1.859.9.86 0 1.454-.207 1.78-.622.326-.423.512-1.183.556-2.28h3.272zm9.748 2.081H124.6l-.868 3.314h-3.461l5.063-16.196h2.993l5.097 16.197h-3.494l-.868-3.316zm-3.75-2.726h3.026l-1.513-5.773-1.513 5.773zm17.57-10.156h3.272v16.197h-3.272V15.174l-4.774 10.723h-3.282V9.702h3.282v10.734l4.774-10.734zm1.491-4.272c0 .986-.356 1.783-1.068 2.392-.705.608-1.636.912-2.793.912-1.165 0-2.103-.304-2.815-.912-.705-.609-1.057-1.406-1.057-2.392h2.303c0 .46.137.82.412 1.079.282.252.667.378 1.157.378.482 0 .86-.126 1.135-.378.274-.26.412-.62.412-1.08h2.314zm14.889 6.997h-4.006v13.471h-3.283v-13.47h-3.939V9.701h11.228v2.725zm12.975 6.83c0 2.173-.516 3.86-1.547 5.062-1.024 1.201-2.448 1.802-4.273 1.802-1.818 0-3.246-.593-4.284-1.78-1.039-1.194-1.565-2.863-1.58-5.006v-2.77c0-2.225.515-3.96 1.546-5.206 1.032-1.253 2.463-1.88 4.296-1.88 1.802 0 3.223.616 4.262 1.847 1.038 1.223 1.565 2.944 1.58 5.161v2.77zm-3.283-2.714c0-1.461-.208-2.547-.623-3.26-.416-.711-1.061-1.067-1.936-1.067-.868 0-1.51.345-1.925 1.034-.416.682-.631 1.725-.646 3.126v2.881c0 1.417.212 2.462.634 3.137.423.668 1.076 1.002 1.959 1.002.853 0 1.487-.327 1.903-.98.415-.66.627-1.68.634-3.058v-2.815zm5.631 9.355V9.702h5.007c1.691 0 2.975.378 3.85 1.134.883.75 1.324 1.85 1.324 3.304 0 .823-.181 1.532-.545 2.125a3.213 3.213 0 01-1.491 1.302 2.825 2.825 0 011.68 1.256c.393.623.59 1.395.59 2.314 0 1.573-.434 2.76-1.302 3.56-.86.801-2.11 1.201-3.75 1.201h-5.363zm3.271-7.041v4.327h2.092c.586 0 1.031-.181 1.335-.545.305-.363.457-.879.457-1.546 0-1.454-.527-2.199-1.581-2.236h-2.303zm0-2.38h1.703c1.283 0 1.925-.665 1.925-1.992 0-.734-.149-1.26-.445-1.58-.297-.319-.779-.478-1.447-.478h-1.736v4.05z" fill="#212121"/><path fill-rule="evenodd" clip-rule="evenodd" d="M23.726.592a4.56 4.56 0 00-4.495 0L10.74 5.404 2.325 10.35a4.556 4.556 0 00-2.247 3.892L0 24l.078 9.758a4.556 4.556 0 002.247 3.892l8.414 4.946 8.492 4.812c1.394.79 3.101.79 4.495 0l8.492-4.812 8.415-4.946a4.557 4.557 0 002.247-3.892L42.958 24l-.078-9.758a4.557 4.557 0 00-2.247-3.892l-8.415-4.946L23.726.592zm.412 24.52l13.51-7.798a2.278 2.278 0 10-2.28-3.946l-13.364 7.714L8.64 13.368a2.28 2.28 0 00-2.278 3.946l13.219 7.63v14.624a2.279 2.279 0 004.558 0V25.112z" fill="#FF5900"/></svg>