<svg width="388" height="127" fill="none" xmlns="http://www.w3.org/2000/svg"><path d="M79.268 93.28c-8.041 14.345-28.704 14.302-36.681-.078l-16.876-30.42c-7.775-14.014 2.384-31.223 18.41-31.19l33.89.073c16.027.034 26.108 17.285 18.27 31.267L79.268 93.28z" fill="#333"/><rect width="30" height="30.942" rx="3" transform="rotate(89.054 13.766 62.932) skewX(-.057)" fill="#fff"/><path d="M107.942 97.8a5.19 5.19 0 01-1.776-.312 4.05 4.05 0 01-1.488-.864l.984-1.728c.32.304.672.536 1.056.696.384.16.792.24 1.224.24.56 0 1.024-.144 1.392-.432.368-.288.712-.8 1.032-1.536l.792-1.752.24-.288 4.992-11.544h2.256l-6.168 13.992c-.368.896-.784 1.6-1.248 2.112-.448.512-.944.872-1.488 1.08a4.684 4.684 0 01-1.8.336zm3.024-4.392l-5.808-13.128h2.4l4.944 11.328-1.536 1.8zm52.431-.264c-1.296 0-2.456-.28-3.48-.84A6.204 6.204 0 01157.541 90c-.576-.976-.864-2.096-.864-3.36 0-1.264.288-2.384.864-3.36a6.032 6.032 0 012.376-2.28c1.024-.56 2.184-.84 3.48-.84 1.152 0 2.176.232 3.072.696a4.763 4.763 0 012.112 2.016L166.829 84c-.416-.624-.928-1.08-1.536-1.368a4.142 4.142 0 00-1.92-.456c-.832 0-1.576.184-2.232.552a4.06 4.06 0 00-1.56 1.56c-.384.656-.576 1.44-.576 2.352 0 .912.192 1.704.576 2.376a4.06 4.06 0 001.56 1.56c.656.368 1.4.552 2.232.552a4.33 4.33 0 001.92-.432c.608-.304 1.12-.768 1.536-1.392l1.752 1.104c-.496.88-1.2 1.56-2.112 2.04-.896.464-1.92.696-3.072.696zm42.88-.168l.144-1.944c.112.016.216.032.312.048s.184.024.264.024c.512 0 .912-.176 1.2-.528.304-.352.528-.816.672-1.392.144-.592.248-1.256.312-1.992s.112-1.472.144-2.208l.216-4.704h9.768V93h-2.304V81.624l.552.672h-6.528l.528-.696-.168 3.528a36.137 36.137 0 01-.264 3.144c-.128.976-.328 1.832-.6 2.568-.256.736-.616 1.312-1.08 1.728-.448.416-1.032.624-1.752.624-.208 0-.432-.024-.672-.072a8.566 8.566 0 01-.744-.144zm55.335 4.824a5.19 5.19 0 01-1.776-.312 4.05 4.05 0 01-1.488-.864l.984-1.728c.32.304.672.536 1.056.696.384.16.792.24 1.224.24.56 0 1.024-.144 1.392-.432.368-.288.712-.8 1.032-1.536l.792-1.752.24-.288 4.992-11.544h2.256l-6.168 13.992c-.368.896-.784 1.6-1.248 2.112-.448.512-.944.872-1.488 1.08a4.684 4.684 0 01-1.8.336zm3.024-4.392l-5.808-13.128h2.4l4.944 11.328-1.536 1.8zM311.875 93V80.28h9.36v2.016h-7.608l.552-.528V93h-2.304zm48.919 0V80.28h2.304v9.264l7.8-9.264h2.088V93h-2.304v-9.264L362.906 93h-2.112z" fill="#999"/><path transform="matrix(1 0 .00002 1 99.86 70)" stroke="#333" stroke-opacity=".53" d="M0-.5h288.139"/></svg>