<svg width="388" height="127" fill="none" xmlns="http://www.w3.org/2000/svg"><path d="M79.268 93.28c-8.041 14.345-28.704 14.302-36.681-.078l-16.876-30.42c-7.775-14.014 2.384-31.223 18.41-31.19l33.89.073c16.027.034 26.108 17.285 18.27 31.267L79.268 93.28z" fill="#FF5900"/><rect width="30" height="30.942" rx="3" transform="rotate(89.054 13.766 62.932) skewX(-.057)" fill="#fff"/><path d="M103.425 61V35.8h19.62v3.852h-15.012v6.192h7.452c3.024 0 5.316.636 6.876 1.908 1.584 1.248 2.376 3.072 2.376 5.472 0 2.472-.876 4.392-2.628 5.76-1.728 1.344-4.176 2.016-7.344 2.016h-11.34zm4.608-3.6h6.48c1.8 0 3.168-.348 4.104-1.044.936-.696 1.404-1.704 1.404-3.024 0-2.592-1.836-3.888-5.508-3.888h-6.48V57.4zm21.875 10.836a8.834 8.834 0 01-2.808-.468c-.936-.312-1.716-.744-2.34-1.296l1.8-3.312c.456.408.972.732 1.548.972.576.24 1.164.36 1.764.36.816 0 1.476-.204 1.98-.612.504-.408.972-1.092 1.404-2.052l1.116-2.52.36-.54 7.272-16.992h4.32l-9 20.772c-.6 1.44-1.272 2.58-2.016 3.42-.72.84-1.536 1.428-2.448 1.764-.888.336-1.872.504-2.952.504zm3.96-6.552l-8.676-19.908h4.68l7.056 16.596-3.06 3.312zM144.796 61l8.46-11.016-.072 2.412-8.064-10.62h5.004l5.652 7.56h-1.908l5.688-7.56h4.86l-8.136 10.62.036-2.412L164.74 61h-5.076l-5.94-8.028 1.872.252L149.764 61h-4.968zm22.444 0V41.776H182v3.816h-11.304l1.044-1.008V61h-4.5zm28.979 0v-3.888l-.252-.828V49.48c0-1.32-.396-2.34-1.188-3.06-.792-.744-1.992-1.116-3.6-1.116-1.08 0-2.148.168-3.204.504-1.032.336-1.908.804-2.628 1.404l-1.764-3.276c1.032-.792 2.256-1.38 3.672-1.764a16.296 16.296 0 014.464-.612c2.784 0 4.932.672 6.444 2.016 1.536 1.32 2.304 3.372 2.304 6.156V61h-4.248zm-6.048.252c-1.44 0-2.7-.24-3.78-.72-1.08-.504-1.92-1.188-2.52-2.052-.576-.888-.864-1.884-.864-2.988 0-1.08.252-2.052.756-2.916.528-.864 1.38-1.548 2.556-2.052 1.176-.504 2.736-.756 4.68-.756h5.58v2.988h-5.256c-1.536 0-2.568.252-3.096.756a2.332 2.332 0 00-.792 1.8c0 .816.324 1.464.972 1.944.648.48 1.548.72 2.7.72 1.104 0 2.088-.252 2.952-.756.888-.504 1.524-1.248 1.908-2.232l.756 2.7c-.432 1.128-1.212 2.004-2.34 2.628-1.104.624-2.508.936-4.212.936zm12.337-.288l.216-3.78c.168.024.324.048.468.072.144.024.276.036.396.036.744 0 1.32-.228 1.728-.684.408-.456.708-1.068.9-1.836.216-.792.36-1.668.432-2.628.096-.984.168-1.968.216-2.952l.324-7.416h15.552V61h-4.5V44.368l1.044 1.224h-9.144l.972-1.26-.252 5.076a45.931 45.931 0 01-.432 4.752c-.192 1.44-.504 2.7-.936 3.78-.408 1.08-.984 1.92-1.728 2.52-.72.6-1.644.9-2.772.9-.36 0-.756-.036-1.188-.108-.408-.072-.84-.168-1.296-.288zm29.568.036V44.512l1.044 1.08h-7.812v-3.816h18v3.816h-7.776l1.044-1.08V61h-4.5zm21.897.252c-2.136 0-4.008-.42-5.616-1.26-1.584-.864-2.82-2.04-3.708-3.528-.864-1.488-1.296-3.18-1.296-5.076 0-1.92.42-3.612 1.26-5.076a9.3 9.3 0 013.528-3.492c1.512-.84 3.228-1.26 5.148-1.26 1.872 0 3.54.408 5.004 1.224 1.464.816 2.616 1.968 3.456 3.456.84 1.488 1.26 3.24 1.26 5.256 0 .192-.012.408-.036.648a6.2 6.2 0 01-.036.684h-16.02V49.84h13.644l-1.764.936c.024-1.104-.204-2.076-.684-2.916a5.23 5.23 0 00-1.98-1.98c-.816-.48-1.764-.72-2.844-.72-1.104 0-2.076.24-2.916.72a5.237 5.237 0 00-1.944 2.016c-.456.84-.684 1.836-.684 2.988v.72c0 1.152.264 2.172.792 3.06.528.888 1.272 1.572 2.232 2.052.96.48 2.064.72 3.312.72 1.08 0 2.052-.168 2.916-.504a6.207 6.207 0 002.304-1.584l2.412 2.772c-.864 1.008-1.956 1.788-3.276 2.34-1.296.528-2.784.792-4.464.792zm23.893 0c-1.56 0-2.988-.36-4.284-1.08-1.272-.72-2.292-1.8-3.06-3.24-.744-1.464-1.116-3.312-1.116-5.544 0-2.256.36-4.104 1.08-5.544.744-1.44 1.752-2.508 3.024-3.204 1.272-.72 2.724-1.08 4.356-1.08 1.896 0 3.564.408 5.004 1.224a8.929 8.929 0 013.456 3.42c.864 1.464 1.296 3.192 1.296 5.184s-.432 3.732-1.296 5.22a8.929 8.929 0 01-3.456 3.42c-1.44.816-3.108 1.224-5.004 1.224zm-10.656 6.732V41.776h4.284v4.536l-.144 5.112.36 5.112v11.448h-4.5zM277.362 57.4c1.08 0 2.04-.24 2.88-.72.864-.48 1.548-1.176 2.052-2.088.504-.912.756-1.98.756-3.204 0-1.248-.252-2.316-.756-3.204-.504-.912-1.188-1.608-2.052-2.088-.84-.48-1.8-.72-2.88-.72-1.08 0-2.052.24-2.916.72-.864.48-1.548 1.176-2.052 2.088-.504.888-.756 1.956-.756 3.204 0 1.224.252 2.292.756 3.204.504.912 1.188 1.608 2.052 2.088.864.48 1.836.72 2.916.72zm22.767 3.852c-2.016 0-3.816-.42-5.4-1.26-1.56-.864-2.784-2.04-3.672-3.528-.888-1.488-1.332-3.18-1.332-5.076 0-1.92.444-3.612 1.332-5.076.888-1.488 2.112-2.652 3.672-3.492 1.584-.84 3.384-1.26 5.4-1.26 1.872 0 3.516.384 4.932 1.152 1.44.744 2.532 1.848 3.276 3.312l-3.456 2.016c-.576-.912-1.284-1.584-2.124-2.016a5.606 5.606 0 00-2.664-.648c-1.104 0-2.1.24-2.988.72a5.145 5.145 0 00-2.088 2.088c-.504.888-.756 1.956-.756 3.204 0 1.248.252 2.328.756 3.24a5.205 5.205 0 002.088 2.052c.888.48 1.884.72 2.988.72.96 0 1.848-.216 2.664-.648.84-.432 1.548-1.104 2.124-2.016l3.456 2.016c-.744 1.44-1.836 2.556-3.276 3.348-1.416.768-3.06 1.152-4.932 1.152zM325.367 61l-6.948-9.216 3.672-2.268L330.659 61h-5.292zm-13.788 0V41.776h4.5V61h-4.5zm3.168-7.704v-3.744h6.516v3.744h-6.516zm7.776-1.368l-4.212-.504 7.056-9.648h4.824l-7.668 10.152zM333.113 61V41.776h4.5v12.672l10.62-12.672h4.104V61h-4.5V48.328L337.253 61h-4.14zm33.521.252c-2.136 0-4.008-.42-5.616-1.26-1.584-.864-2.82-2.04-3.708-3.528-.864-1.488-1.296-3.18-1.296-5.076 0-1.92.42-3.612 1.26-5.076a9.3 9.3 0 013.528-3.492c1.512-.84 3.228-1.26 5.148-1.26 1.872 0 3.54.408 5.004 1.224 1.464.816 2.616 1.968 3.456 3.456.84 1.488 1.26 3.24 1.26 5.256 0 .192-.012.408-.036.648a6.2 6.2 0 01-.036.684h-16.02V49.84h13.644l-1.764.936c.024-1.104-.204-2.076-.684-2.916a5.23 5.23 0 00-1.98-1.98c-.816-.48-1.764-.72-2.844-.72-1.104 0-2.076.24-2.916.72a5.237 5.237 0 00-1.944 2.016c-.456.84-.684 1.836-.684 2.988v.72c0 1.152.264 2.172.792 3.06.528.888 1.272 1.572 2.232 2.052.96.48 2.064.72 3.312.72 1.08 0 2.052-.168 2.916-.504a6.207 6.207 0 002.304-1.584l2.412 2.772c-.864 1.008-1.956 1.788-3.276 2.34-1.296.528-2.784.792-4.464.792zM107.942 97.8a5.19 5.19 0 01-1.776-.312 4.05 4.05 0 01-1.488-.864l.984-1.728c.32.304.672.536 1.056.696.384.16.792.24 1.224.24.56 0 1.024-.144 1.392-.432.368-.288.712-.8 1.032-1.536l.792-1.752.24-.288 4.992-11.544h2.256l-6.168 13.992c-.368.896-.784 1.6-1.248 2.112-.448.512-.944.872-1.488 1.08a4.684 4.684 0 01-1.8.336zm3.024-4.392l-5.808-13.128h2.4l4.944 11.328-1.536 1.8zm52.431-.264c-1.296 0-2.456-.28-3.48-.84A6.204 6.204 0 01157.541 90c-.576-.976-.864-2.096-.864-3.36 0-1.264.288-2.384.864-3.36a6.032 6.032 0 012.376-2.28c1.024-.56 2.184-.84 3.48-.84 1.152 0 2.176.232 3.072.696a4.763 4.763 0 012.112 2.016L166.829 84c-.416-.624-.928-1.08-1.536-1.368a4.142 4.142 0 00-1.92-.456c-.832 0-1.576.184-2.232.552a4.06 4.06 0 00-1.56 1.56c-.384.656-.576 1.44-.576 2.352 0 .912.192 1.704.576 2.376a4.06 4.06 0 001.56 1.56c.656.368 1.4.552 2.232.552a4.33 4.33 0 001.92-.432c.608-.304 1.12-.768 1.536-1.392l1.752 1.104c-.496.88-1.2 1.56-2.112 2.04-.896.464-1.92.696-3.072.696zm42.88-.168l.144-1.944c.112.016.216.032.312.048s.184.024.264.024c.512 0 .912-.176 1.2-.528.304-.352.528-.816.672-1.392.144-.592.248-1.256.312-1.992s.112-1.472.144-2.208l.216-4.704h9.768V93h-2.304V81.624l.552.672h-6.528l.528-.696-.168 3.528a36.137 36.137 0 01-.264 3.144c-.128.976-.328 1.832-.6 2.568-.256.736-.616 1.312-1.08 1.728-.448.416-1.032.624-1.752.624-.208 0-.432-.024-.672-.072a8.566 8.566 0 01-.744-.144zm55.335 4.824a5.19 5.19 0 01-1.776-.312 4.05 4.05 0 01-1.488-.864l.984-1.728c.32.304.672.536 1.056.696.384.16.792.24 1.224.24.56 0 1.024-.144 1.392-.432.368-.288.712-.8 1.032-1.536l.792-1.752.24-.288 4.992-11.544h2.256l-6.168 13.992c-.368.896-.784 1.6-1.248 2.112-.448.512-.944.872-1.488 1.08a4.684 4.684 0 01-1.8.336zm3.024-4.392l-5.808-13.128h2.4l4.944 11.328-1.536 1.8zM311.875 93V80.28h9.36v2.016h-7.608l.552-.528V93h-2.304zm48.919 0V80.28h2.304v9.264l7.8-9.264h2.088V93h-2.304v-9.264L362.906 93h-2.112z" fill="#333"/><path transform="matrix(1 0 .00002 1 99.86 70)" stroke="#333" stroke-opacity=".53" d="M0-.5h288.139"/></svg>