<svg width="40" height="40" fill="none" xmlns="http://www.w3.org/2000/svg"><path d="M26.139 0H13.86C2.655 0-.001 2.656-.001 13.861V26.14c0 11.205 2.656 13.861 13.861 13.861h12.279C37.344 40.001 40 37.345 40 26.14V13.861C40 2.656 37.318 0 26.139 0zm6.152 28.535h-2.903c-1.1 0-1.44-.872-3.418-2.878-1.719-1.666-2.48-1.887-2.904-1.887-.598 0-.768.169-.768.99v2.624c0 .703-.222 1.126-2.084 1.126-3.08 0-6.498-1.863-8.894-5.333-3.614-5.084-4.603-8.893-4.603-9.68 0-.425.17-.82.983-.82h2.91c.736 0 1.016.338 1.303 1.126 1.438 4.153 3.835 7.792 4.823 7.792.365 0 .534-.169.534-1.1v-4.29c-.111-1.979-1.152-2.149-1.152-2.851 0-.339.28-.678.728-.678h4.576c.62 0 .847.339.847 1.068v5.787c0 .625.28.847.449.847.364 0 .677-.222 1.353-.9 2.09-2.343 3.588-5.957 3.588-5.957.195-.424.534-.82 1.27-.82h2.91c.872 0 1.067.449.872 1.074-.365 1.692-3.926 6.719-3.926 6.719-.306.507-.424.729 0 1.295.313.423 1.329 1.302 2.005 2.09 1.244 1.412 2.2 2.597 2.455 3.417.286.814-.136 1.238-.957 1.238l.003.001z" fill="#fff"/></svg>