<svg width="40" height="40" fill="none" xmlns="http://www.w3.org/2000/svg"><path d="M26.54 29.174l3.281-15.469c.134-.654.056-1.123-.234-1.406-.29-.283-.673-.335-1.15-.156L9.152 19.576c-.432.164-.726.35-.882.558-.156.208-.175.405-.056.591.12.186.357.331.715.436l4.933 1.54 11.45-7.21c.313-.208.551-.253.715-.134.104.075.074.186-.09.335l-9.263 8.37-.357 5.09c.342 0 .677-.164 1.004-.491l2.411-2.322 5 3.683c.953.536 1.555.253 1.808-.848zM40 20c0 2.708-.528 5.298-1.585 7.768-1.056 2.47-2.477 4.598-4.263 6.384-1.786 1.785-3.914 3.207-6.384 4.263A19.552 19.552 0 0120 40c-2.708 0-5.298-.528-7.768-1.585-2.47-1.056-4.598-2.477-6.384-4.263-1.785-1.786-3.207-3.914-4.263-6.384A19.552 19.552 0 010 20c0-2.708.528-5.298 1.585-7.768 1.056-2.47 2.478-4.598 4.263-6.384 1.786-1.785 3.914-3.207 6.384-4.263A19.552 19.552 0 0120 0c2.708 0 5.298.528 7.768 1.585 2.47 1.056 4.598 2.478 6.384 4.263 1.785 1.786 3.207 3.914 4.263 6.384A19.552 19.552 0 0140 20z" fill="#fff"/></svg>